# xmcd
#
# Track frame offsets:
#	150
#	20902
#	47640
#	70892
#	101815
#	127862
#	158090
#
# Disc length: 2483 seconds
#
# Revision: 1
# Processed by: cddbd v1.5.1PL0 Copyright (c) Steve Scherf et al.
# Submitted via: CDex 1.50Beta5
#
DISCID=5909b107
DTITLE=中山美穂 - manifesto
DYEAR=1900
DGENRE=Pop
TTITLE0=ESPRESSO'n'MILK
TTITLE1=あきるまで
TTITLE2=ビシソワーズフラワー
TTITLE3=SEVILLANA
TTITLE4=Sweetest Lover
TTITLE5=Mark
TTITLE6=Simple Things #22
EXTD=
EXTT0=
EXTT1=
EXTT2=
EXTT3=
EXTT4=
EXTT5=
EXTT6=
PLAYORDER=
